<svg xmlns="http://www.w3.org/2000/svg" width="1200" height="630" viewBox="0 0 1200 630">
  <defs>
    <linearGradient id="bg" x1="0%" y1="0%" x2="100%" y2="100%">
      <stop offset="0%" style="stop-color:#0d1117"/>
      <stop offset="100%" style="stop-color:#161b22"/>
    </linearGradient>
  </defs>
  <rect fill="url(#bg)" width="1200" height="630"/>
  <!-- Git branches visualization -->
  <circle cx="400" cy="200" r="20" fill="#ffd607"/>
  <circle cx="500" cy="200" r="20" fill="#ffd607"/>
  <circle cx="600" cy="200" r="20" fill="#ffd607"/>
  <line x1="420" y1="200" x2="480" y2="200" stroke="#ffd607" stroke-width="4"/>
  <line x1="520" y1="200" x2="580" y2="200" stroke="#ffd607" stroke-width="4"/>
  <!-- Branch -->
  <line x1="500" y1="220" x2="550" y2="300" stroke="#3fb950" stroke-width="4"/>
  <circle cx="550" cy="300" r="20" fill="#3fb950"/>
  <circle cx="650" cy="300" r="20" fill="#3fb950"/>
  <line x1="570" y1="300" x2="630" y2="300" stroke="#3fb950" stroke-width="4"/>
  <!-- Merge -->
  <line x1="650" y1="280" x2="700" y2="200" stroke="#3fb950" stroke-width="4"/>
  <circle cx="700" cy="200" r="20" fill="#ffd607"/>
  <circle cx="800" cy="200" r="20" fill="#ffd607"/>
  <line x1="620" y1="200" x2="680" y2="200" stroke="#ffd607" stroke-width="4"/>
  <line x1="720" y1="200" x2="780" y2="200" stroke="#ffd607" stroke-width="4"/>
  <text x="600" y="450" font-family="monospace" font-size="64" fill="#ffd607" text-anchor="middle" font-weight="bold">GIT</text>
  <text x="600" y="520" font-family="monospace" font-size="32" fill="#8b949e" text-anchor="middle">Guía Completa</text>
  <text x="600" y="570" font-family="monospace" font-size="20" fill="#3fb950" text-anchor="middle">$ git commit -m "master your workflow"</text>
</svg>
